<svg width="146" height="208" viewBox="0 0 146 208" fill="none" xmlns="http://www.w3.org/2000/svg">
<path opacity="0.1" d="M-37.6956 37.1042C-25.6673 22.7695 -9.98916 11.9513 7.68124 5.79339C25.3519 -0.364512 44.3579 -1.63331 62.6899 2.12129C81.0219 5.87579 97.9989 14.5141 111.826 27.1228C125.653 39.7316 135.816 55.8422 141.24 73.751C146.665 91.661 147.149 110.703 142.642 128.865C138.136 147.026 128.805 163.633 115.637 176.929C102.469 190.224 85.9539 199.715 67.8359 204.396C49.7189 209.078 30.6729 208.778 12.712 203.526L24.0969 164.589C35.0409 167.789 46.6459 167.973 57.6859 165.12C68.7259 162.267 78.7899 156.484 86.8139 148.382C94.8379 140.28 100.523 130.161 103.269 119.094C106.016 108.027 105.72 96.424 102.415 85.511C99.1099 74.598 92.9169 64.781 84.4909 57.0981C76.0659 49.415 65.7209 44.1512 54.5499 41.8634C43.3799 39.5756 31.7979 40.3487 21.0309 44.101C10.2635 47.8533 0.710041 54.4454 -6.61936 63.18L-37.6956 37.1042Z" fill="#316BFF"/>
</svg>
