<svg width="184" height="208" viewBox="0 0 184 208" fill="none" xmlns="http://www.w3.org/2000/svg">
<path opacity="0.1" d="M0.304443 37.1042C12.3327 22.7695 28.0108 11.9513 45.6812 5.79339C63.3519 -0.364512 82.3579 -1.63331 100.69 2.12129C119.022 5.87579 135.999 14.5141 149.826 27.1228C163.653 39.7316 173.816 55.8422 179.24 73.751C184.665 91.661 185.149 110.703 180.642 128.865C176.136 147.026 166.805 163.633 153.637 176.929C140.469 190.224 123.954 199.715 105.836 204.396C87.7189 209.078 68.6729 208.778 50.712 203.526L62.0969 164.589C73.0409 167.789 84.6459 167.973 95.6859 165.12C106.726 162.267 116.79 156.484 124.814 148.382C132.838 140.28 138.523 130.161 141.269 119.094C144.016 108.027 143.72 96.424 140.415 85.511C137.11 74.598 130.917 64.781 122.491 57.0981C114.066 49.415 103.721 44.1512 92.5499 41.8634C81.3799 39.5756 69.7979 40.3487 59.0309 44.101C48.2635 47.8533 38.71 54.4454 31.3806 63.18L0.304443 37.1042Z" fill="#316BFF"/>
</svg>
